<svg width="246" height="245" xmlns="http://www.w3.org/2000/svg" xmlns:xlink="http://www.w3.org/1999/xlink" xml:space="preserve" overflow="hidden"><g transform="translate(-471 -179)"><path d="M163.333 91.875 219.479 91.875 163.333 35.7292 163.333 91.875M71.4583 20.4167 173.542 20.4167 234.792 81.6667 234.792 183.75C234.792 195.026 225.651 204.167 214.375 204.167L71.4583 204.167C60.1271 204.167 51.0417 194.979 51.0417 183.75L51.0417 40.8333C51.0417 29.5575 60.1825 20.4167 71.4583 20.4167M30.625 61.25 30.625 224.583 214.375 224.583 214.375 245 30.625 245C19.3492 245 10.2083 235.859 10.2083 224.583L10.2083 61.25 30.625 61.25Z" fill="#FFFFFF" transform="matrix(1.00408 0 0 1 471 179)"/></g></svg>