<svg width="204" height="205" xmlns="http://www.w3.org/2000/svg" xmlns:xlink="http://www.w3.org/1999/xlink" xml:space="preserve" overflow="hidden"><g transform="translate(-545 -213)"><path d="M192.525 77.1375 181.475 73.1 181.475 49.9375 192.525 45.2625 117.725 17.6375 26.775 49.5125C18.0625 53.7625 17.85 65.45 17.85 75.0125 17.85 78.2 18.275 81.3875 18.9125 84.3625 11.6875 89.0375 11.475 99.875 11.475 109.012 11.475 116.45 13.175 123.25 17.85 127.5 16.7875 131.113 17.425 135.575 17.425 140.888 17.425 150.45 19.975 159.163 28.475 162.138L87.55 186.575 192.1 143.225 181.05 139.188 181.05 115.812 192.1 111.137 175.1 104.762 175.1 84.3625 192.525 77.1375ZM29.325 64.3875 88.4 87.55 173.188 53.3375 173.188 71.6125 88.4 106.887 29.325 83.5125 29.325 64.3875ZM172.763 137.7 87.975 172.763 28.6875 149.388 28.6875 132.812 81.6 154.487 172.975 118.363 172.763 137.7ZM166.812 105.825 82.025 140.888 22.95 117.512 22.95 98.3875 83.725 122.613 167.025 87.7625 167.025 105.825Z" fill="#FFFFFF" transform="matrix(1 0 0 1.0049 545 213)"/></g></svg>